<svg xmlns="http://www.w3.org/2000/svg" width="30" height="20" viewBox="0 0 30 20"><g fill="none" fill-rule="evenodd"><path fill="#000" fill-rule="nonzero" d="M12.099 13.684c1.243 0 2.248 1.016 2.248 2.266 0 1.249-1.005 2.266-2.248 2.266-1.244 0-2.248-1.017-2.248-2.266 0-1.25 1.004-2.266 2.248-2.266zm8.989 0c1.243 0 2.248 1.016 2.248 2.266 0 1.249-1.005 2.266-2.248 2.266-1.243 0-2.248-1.017-2.248-2.266 0-1.25 1.005-2.266 2.248-2.266zm-8.99 1.5c-.41 0-.747.34-.747.766 0 .425.336.766.748.766.41 0 .748-.342.748-.766 0-.425-.338-.766-.748-.766zm8.99 0c-.41 0-.748.34-.748.766 0 .424.337.766.748.766.41 0 .748-.342.748-.766 0-.425-.337-.766-.748-.766zM8.055.056l1.76 4.47H24.21l.59-1.203 1.347.66-4.145 8.47H11.324L7.033 1.555 4 1.556v-1.5h4.055zm15.422 5.97H10.405l1.94 4.926h8.722l2.41-4.926z"/></g></svg>