<svg xmlns="http://www.w3.org/2000/svg" width="23" height="22" viewBox="0 0 23 22"><g fill="none" fill-rule="evenodd"><path fill="#000" fill-rule="nonzero" d="M10.219.344c4.35 0 7.875 3.526 7.875 7.875 0 1.96-.716 3.751-1.9 5.13l5.285 5.07L20.44 19.5l-5.327-5.112c-1.344 1.067-3.044 1.705-4.894 1.705-4.35 0-7.875-3.526-7.875-7.875 0-4.35 3.525-7.875 7.875-7.875zm0 1.5c-3.521 0-6.375 2.854-6.375 6.375 0 3.52 2.854 6.375 6.375 6.375 3.52 0 6.375-2.854 6.375-6.375s-2.854-6.375-6.375-6.375z" transform="translate(0 1)"/></g></svg>